<svg xmlns="http://www.w3.org/2000/svg" width="920" height="620" viewBox="0 0 920 620" style="font-family: ui-monospace, 'Cascadia Code', monospace; background: #0d1117;">
  <defs>
    <filter id="shadow" x="-5%" y="-5%" width="110%" height="110%">
      <feDropShadow dx="0" dy="2" stdDeviation="3" flood-color="#000" flood-opacity="0.4"/>
    </filter>
  </defs>
  <text x="460" y="30" text-anchor="middle" fill="#58a6ff" font-size="16" font-weight="700">terraform-aws-eks-platform</text>
  <text x="460" y="50" text-anchor="middle" fill="#6e7681" font-size="11">Modular Terraform · VPC · EKS · RDS · ALB · GitHub OIDC</text>
  <rect x="310" y="68" width="220" height="55" rx="8" fill="#0d2b0f" stroke="#3fb950" stroke-width="1.5"/>
  <text x="420" y="90" text-anchor="middle" fill="#3fb950" font-size="13" font-weight="600">GitHub Actions</text>
  <text x="420" y="108" text-anchor="middle" fill="#57ab5a" font-size="11">OIDC — no long-lived keys</text>
  <rect x="30" y="145" width="860" height="460" rx="10" fill="none" stroke="#f0883e" stroke-width="1" stroke-dasharray="5,4"/>
  <rect x="40" y="138" width="89" height="14" rx="3" fill="#0d1117"/>
  <text x="46" y="148" fill="#f0883e" font-size="11" font-weight="600">AWS Account</text>
  <rect x="50" y="175" width="820" height="415" rx="10" fill="none" stroke="#388bfd" stroke-width="1" stroke-dasharray="5,4"/>
  <rect x="60" y="168" width="124" height="14" rx="3" fill="#0d1117"/>
  <text x="66" y="178" fill="#388bfd" font-size="11" font-weight="600">VPC  10.0.0.0/16</text>
  <rect x="70" y="205" width="320" height="175" rx="10" fill="none" stroke="#3fb950" stroke-width="1" stroke-dasharray="5,4"/>
  <rect x="80" y="198" width="110" height="14" rx="3" fill="#0d1117"/>
  <text x="86" y="208" fill="#3fb950" font-size="11" font-weight="600">Public Subnets</text>
  <rect x="85" y="225" width="130" height="50" rx="6" fill="#0d2b0f" stroke="#3fb950" stroke-width="1.2"/>
  <text x="150" y="242" text-anchor="middle" fill="#57ab5a" font-size="12">ALB</text>
  <text x="150" y="258" text-anchor="middle" fill="#57ab5a" font-size="12">(AWS Load Balancer)</text>
  <rect x="235" y="225" width="130" height="50" rx="6" fill="#0d2b0f" stroke="#3fb950" stroke-width="1.2"/>
  <text x="300" y="242" text-anchor="middle" fill="#57ab5a" font-size="12">NAT Gateway</text>
  <text x="300" y="258" text-anchor="middle" fill="#57ab5a" font-size="12">(per-AZ HA)</text>
  <rect x="85" y="295" width="130" height="50" rx="6" fill="#0d2b0f" stroke="#3fb950" stroke-width="1.2"/>
  <text x="150" y="312" text-anchor="middle" fill="#57ab5a" font-size="12">Internet</text>
  <text x="150" y="328" text-anchor="middle" fill="#57ab5a" font-size="12">Gateway</text>
  <rect x="235" y="295" width="130" height="50" rx="6" fill="#0d2b0f" stroke="#3fb950" stroke-width="1.2"/>
  <text x="300" y="312" text-anchor="middle" fill="#57ab5a" font-size="12">Flow Logs</text>
  <text x="300" y="328" text-anchor="middle" fill="#57ab5a" font-size="12">→ CloudWatch</text>
  <rect x="415" y="205" width="440" height="370" rx="10" fill="none" stroke="#388bfd" stroke-width="1" stroke-dasharray="5,4"/>
  <rect x="425" y="198" width="117" height="14" rx="3" fill="#0d1117"/>
  <text x="431" y="208" fill="#388bfd" font-size="11" font-weight="600">Private Subnets</text>
  <rect x="430" y="230" width="410" height="200" rx="10" fill="none" stroke="#a371f7" stroke-width="1" stroke-dasharray="5,4"/>
  <rect x="440" y="223" width="89" height="14" rx="3" fill="#0d1117"/>
  <text x="446" y="233" fill="#a371f7" font-size="11" font-weight="600">EKS Cluster</text>
  <rect x="445" y="255" width="175" height="50" rx="6" fill="#1b1535" stroke="#a371f7" stroke-width="1.2"/>
  <text x="532" y="272" text-anchor="middle" fill="#d2a8ff" font-size="12">Managed Node Groups</text>
  <text x="532" y="288" text-anchor="middle" fill="#d2a8ff" font-size="12">m6i.xlarge  On-Demand+Spot</text>
  <rect x="640" y="255" width="175" height="50" rx="6" fill="#1b1535" stroke="#a371f7" stroke-width="1.2"/>
  <text x="727" y="272" text-anchor="middle" fill="#d2a8ff" font-size="12">IRSA</text>
  <text x="727" y="288" text-anchor="middle" fill="#d2a8ff" font-size="12">(per-SA IAM Roles)</text>
  <rect x="445" y="320" width="175" height="50" rx="6" fill="#1b1535" stroke="#a371f7" stroke-width="1.2"/>
  <text x="532" y="337" text-anchor="middle" fill="#d2a8ff" font-size="12">AWS LB Controller</text>
  <text x="532" y="353" text-anchor="middle" fill="#d2a8ff" font-size="12">(Helm managed)</text>
  <rect x="640" y="320" width="175" height="50" rx="6" fill="#1b1535" stroke="#a371f7" stroke-width="1.2"/>
  <text x="727" y="337" text-anchor="middle" fill="#d2a8ff" font-size="12">CoreDNS · kube-proxy</text>
  <text x="727" y="353" text-anchor="middle" fill="#d2a8ff" font-size="12">VPC CNI add-ons</text>
  <rect x="430" y="445" width="175" height="55" rx="6" fill="#2d1b00" stroke="#e3b341" stroke-width="1.2"/>
  <text x="517" y="464" text-anchor="middle" fill="#e3b341" font-size="12">RDS PostgreSQL</text>
  <text x="517" y="480" text-anchor="middle" fill="#e3b341" font-size="12">Multi-AZ</text>
  <rect x="625" y="445" width="175" height="55" rx="6" fill="#2d1b00" stroke="#e3b341" stroke-width="1.2"/>
  <text x="712" y="464" text-anchor="middle" fill="#e3b341" font-size="12">Secrets Manager</text>
  <text x="712" y="480" text-anchor="middle" fill="#e3b341" font-size="12">(DB password)</text>
  <rect x="310" y="525" width="310" height="50" rx="6" fill="#161b22" stroke="#30363d" stroke-width="1.2"/>
  <text x="465" y="550" text-anchor="middle" fill="#8b949e" font-size="11">modules/github-oidc  →  IAM OIDC Provider + Role</text>
  <defs><marker id="ar" markerWidth="8" markerHeight="6" refX="6" refY="3" orient="auto"><polygon points="0 0, 8 3, 0 6" fill="#6e7681"/></marker></defs>
  <line x1="420" y1="95" x2="310" y2="160" stroke="#3fb950" stroke-width="1.5" marker-end="url(#ar)"/>
  <text x="365" y="122" text-anchor="middle" fill="#3fb950" font-size="10">OIDC</text>
  <line x1="530" y1="95" x2="605" y2="160" stroke="#3fb950" stroke-width="1.5" marker-end="url(#ar)"/>
  <text x="567" y="122" text-anchor="middle" fill="#3fb950" font-size="10">deploy</text>
  <line x1="390" y1="265" x2="415" y2="265" stroke="#6e7681" stroke-width="1.5" marker-end="url(#ar)"/>
  <text x="402" y="260" text-anchor="middle" fill="#6e7681" font-size="10">routes traffic</text>
  <line x1="300" y1="350" x2="415" y2="350" stroke="#6e7681" stroke-width="1.5" marker-end="url(#ar)"/>

</svg>